# xmcd
#
# Track frame offsets:
#	150
#	1762
#	19652
#	38977
#	58140
#	75925
#	95827
#	115090
#	133450
#	151785
#	167580
#
# Disc length: 2532 seconds
#
# Revision: 3
# Processed by: cddbd v1.5.2PL0 Copyright (c) Steve Scherf et al.
# Submitted via: audiograbber 1.83.01
#
DISCID=7f09e20b
DTITLE=Melina Leon - Mujeres Liberadas
DYEAR=1998
DGENRE=Latin
TTITLE0=Introduccion
TTITLE1=Mujeres Liberadas
TTITLE2=Devuelveme La Llave
TTITLE3=Viaje Al Cielo
TTITLE4=Ya No Soy Buena
TTITLE5=Espero
TTITLE6=Cadena Perpetua
TTITLE7=A Quien Vas A Engañar
TTITLE8=Es Mentira
TTITLE9=Te Crucifico O Te Santifico
TTITLE10=Atada A Tu Volcan
EXTD=YEAR: 1998
EXTT0=
EXTT1=
EXTT2=
EXTT3=
EXTT4=
EXTT5=
EXTT6=
EXTT7=
EXTT8=
EXTT9=
EXTT10=
PLAYORDER=
